HIERARCHY
ROOT RootJoint
{
    OFFSET   0.000000   0.000000   0.000000
    CHANNELS 6 Xposition Yposition Zposition Xrotation Yrotation Zrotation
    JOINT pelvis_lowerback
    {
        OFFSET   0.000000   0.093605   0.000000
        CHANNELS 3 Xrotation Yrotation Zrotation
        JOINT lowerback_torso
        {
            OFFSET   0.000000   0.100000   0.000000
            CHANNELS 3 Xrotation Yrotation Zrotation
            JOINT torso_head
            {
                OFFSET   0.000000   0.282350   0.000000
                CHANNELS 3 Xrotation Yrotation Zrotation
                End Site
                {
                    OFFSET   0.000000   0.192650   0.000000
                }
            }
            JOINT rTorso_Clavicle
            {
                OFFSET  -0.001000   0.157500   0.000000
                CHANNELS 3 Xrotation Yrotation Zrotation
                JOINT rShoulder
                {
                    OFFSET  -0.117647   0.000000   0.000000
                    CHANNELS 3 Xrotation Yrotation Zrotation
                    JOINT rElbow
                    {
                        OFFSET  -0.245000   0.000000   0.000000
                        CHANNELS 3 Xrotation Yrotation Zrotation
                        JOINT rWrist
                        {
                            OFFSET  -0.240000   0.000000   0.000000
                            CHANNELS 3 Xrotation Yrotation Zrotation
                            End Site
                            {
                                OFFSET  -0.116353  -0.002500   0.000000
                            }
                        }
                    }
                }
            }
            JOINT lTorso_Clavicle
            {
                OFFSET   0.001000   0.157500   0.000000
                CHANNELS 3 Xrotation Yrotation Zrotation
                JOINT lShoulder
                {
                    OFFSET   0.117647   0.000000   0.000000
                    CHANNELS 3 Xrotation Yrotation Zrotation
                    JOINT lElbow
                    {
                        OFFSET   0.245000   0.000000   0.000000
                        CHANNELS 3 Xrotation Yrotation Zrotation
                        JOINT lWrist
                        {
                            OFFSET   0.240000   0.000000   0.000000
                            CHANNELS 3 Xrotation Yrotation Zrotation
                            End Site
                            {
                                OFFSET   0.116353  -0.002500   0.000000
                            }
                        }
                    }
                }
            }
        }
    }
    JOINT rHip
    {
        OFFSET  -0.100000  -0.051395   0.000000
        CHANNELS 3 Xrotation Yrotation Zrotation
        JOINT rKnee
        {
            OFFSET   0.000000  -0.410000   0.000000
            CHANNELS 3 Xrotation Yrotation Zrotation
            JOINT rAnkle
            {
                OFFSET   0.000000  -0.390000   0.000000
                CHANNELS 3 Xrotation Yrotation Zrotation
                JOINT rToeJoint
                {
                    OFFSET   0.000000  -0.050000   0.130000
                    CHANNELS 3 Xrotation Yrotation Zrotation
                    End Site
                    {
                        OFFSET  -0.010000   0.002000   0.060000
                    }
                }
            }
        }
    }
    JOINT lHip
    {
        OFFSET   0.100000  -0.051395   0.000000
        CHANNELS 3 Xrotation Yrotation Zrotation
        JOINT lKnee
        {
            OFFSET   0.000000  -0.410000   0.000000
            CHANNELS 3 Xrotation Yrotation Zrotation
            JOINT lAnkle
            {
                OFFSET   0.000000  -0.390000   0.000000
                CHANNELS 3 Xrotation Yrotation Zrotation
                JOINT lToeJoint
                {
                    OFFSET   0.000000  -0.050000   0.130000
                    CHANNELS 3 Xrotation Yrotation Zrotation
                    End Site
                    {
                        OFFSET   0.010000   0.002000   0.060000
                    }
                }
            }
        }
    }
}
MOTION
Frames: 7
Frame Time:   0.008333
 -2.044936   0.199660   4.645250 -42.869079  38.460245  -5.397709  43.739788  11.110682   2.589270  12.653857  -3.408479  -2.619453  -1.099471   4.383183   8.637811  -6.298869   2.633529   1.994703  -4.858035  -1.475197   0.072269  -0.011549  24.160496   0.025530   2.882064   2.945211  -7.142351  -2.408123  -6.809020  -1.252265  -9.234847   2.546543   0.563072   0.010958 -30.932174   0.012896   0.209388  -2.309906  15.335796 -37.225506  18.121437 -22.260049 155.288320  -0.011428   0.009562 -18.175720 -12.329091   0.075327  -8.074282   0.082841  -0.026998 -102.176317  10.676051  20.793924 153.734500   0.039214  -0.031999 -35.121618  -7.265359  -9.300521   4.372768   0.014919  -0.004338
 -2.039506   0.196649   4.644499 -44.357969  39.200256  -5.629422  43.738293  11.483507   2.763268  12.985898  -3.727143  -2.118499  -0.855613   4.257357   8.624516  -6.194059   2.169496   2.379760  -4.014706  -1.610855   0.995363  -0.012584  23.321728   0.022234   2.872295   2.736744  -7.335403  -2.261657  -6.779021  -0.548773  -8.090451   1.961183   0.509887   0.016690 -32.842131   0.021021   0.046055  -1.684062  14.881308 -36.785068  17.817699 -21.152877 154.300035  -0.014187   0.011087 -18.218786 -12.154341  -0.440762  -7.015438   0.072850  -0.022824 -101.100693  10.803654  20.893453 154.273943   0.037358  -0.029036 -35.830320  -7.316772 -10.144249   4.622427   0.016913  -0.003632
 -2.034109   0.194141   4.643468 -45.855124  40.028508  -5.863546  43.702821  11.793391   2.960851  13.325196  -4.068126  -1.574611  -0.606846   4.140894   8.596734  -6.083339   1.731201   2.851702  -3.212577  -1.736315   1.944119  -0.013778  22.529915   0.018844   2.849818   2.455782  -7.411711  -2.111240  -6.823111   0.134910  -7.009141   1.325717   0.469835   0.021197 -34.694335   0.025848   0.003881  -1.477120  14.316108 -36.511911  17.544027 -20.056159 153.220019  -0.016867   0.013115 -18.265712 -11.981798  -0.919390  -6.055839   0.063750  -0.020067 -99.874752  10.886241  20.954183 154.720561   0.034924  -0.025779 -36.498777  -7.354389 -10.924172   4.842419   0.017766  -0.002864
 -2.028781   0.190924   4.641895 -47.000266  41.025748  -6.137526  43.483979  11.933304   3.196741  13.529764  -4.505532  -1.025262  -0.383071   4.028462   8.559822  -5.969641   1.271186   3.308110  -2.455989  -1.874214   2.852807  -0.014173  21.781676   0.015122   2.824709   2.149292  -7.388635  -1.963610  -6.928451   0.803178  -5.995023   0.673386   0.446618   0.022712 -36.450422   0.026942   0.013677  -1.470073  13.705919 -36.520879  17.436607 -19.249595 152.205588  -0.019097   0.016079 -18.314514 -11.821016  -1.368081  -5.197957   0.056473  -0.019032 -98.302539  10.355547  20.683580 154.383280   0.025565  -0.021063 -37.264105  -7.575665 -11.515234   5.026244   0.015945  -0.001998
 -2.023067   0.188523   4.640688 -48.583355  41.906459  -6.361256  43.423285  12.143951   3.482572  13.838327  -4.862257  -0.448760  -0.166022   3.929337   8.530774  -5.861779   0.873943   3.802245  -1.745832  -1.976793   3.739945  -0.014275  21.085522   0.011292   2.801463   1.851810  -7.333196  -1.822752  -7.038829   1.400103  -5.047490   0.056732   0.424800   0.023041 -38.093230   0.025282   0.037420  -1.511312  13.127575 -36.352665  17.226584 -18.167674 151.200298  -0.020360   0.017967 -18.358045 -11.670873  -1.785060  -4.399188   0.049647  -0.018024 -97.128958  10.562264  20.893940 154.835685   0.026510  -0.020075 -37.791304  -7.512509 -12.219816   5.238554   0.017290  -0.001348
 -2.017451   0.186367   4.639289 -50.079123  42.907776  -6.672750  43.305964  12.255879   3.816298  14.092066  -5.237222   0.166479   0.030301   3.833681   8.510349  -5.755015   0.489674   4.302295  -1.077408  -2.071009   4.599543  -0.013836  20.434326   0.007557   2.779637   1.567281  -7.220194  -1.686595  -7.165056   1.967589  -4.160989  -0.538351   0.414820   0.021969 -39.633133   0.021664   0.067942  -1.585826  12.558730 -36.284824  17.039786 -17.181462 150.262621  -0.021208   0.020410 -18.398821 -11.527805  -2.172699  -3.674282   0.044098  -0.017964 -95.931634  10.669863  20.990397 155.229003   0.026377  -0.018690 -38.340860  -7.513593 -12.865872   5.410020   0.017311  -0.000928
 -2.011914   0.184373   4.637675 -51.505442  43.983940  -7.045011  43.154709  12.302951   4.175283  14.303389  -5.628290   0.792300   0.207469   3.742555   8.494159  -5.650085   0.110718   4.791196  -0.449912  -2.163901   5.419468  -0.012886  19.822185   0.004053   2.757262   1.279754  -7.074205  -1.556540  -7.302731   2.508294  -3.332967  -1.110387   0.419007   0.019831 -41.076392   0.016831   0.103796  -1.687956  12.013437 -36.290231  16.898618 -16.279673 149.394783  -0.021680   0.022986 -18.437683 -11.395052  -2.535064  -3.017372   0.039529  -0.018432 -94.713254  10.693786  21.045093 155.559771   0.025437  -0.017008 -38.859018  -7.524326 -13.447595   5.563961   0.016841  -0.000547
